<svg width="100" height="100" viewBox="0 0 100 100" fill="none" xmlns="http://www.w3.org/2000/svg">
<g clip-path="url(#clip0_258_158)">
<path d="M54.0391 43.4531V44.6406C53.5078 44.5859 52.9844 44.5312 52.4766 44.4687C51.8594 44.3984 51.2578 44.3203 50.6797 44.2422C47.6406 43.8203 44.7891 43.0859 42.125 42.0312C41.5938 41.8203 41.0703 41.6016 40.5625 41.3594V39.875C41.0703 40.1172 41.5859 40.3437 42.125 40.5547C44.5312 41.5234 47.2422 42.2891 50.25 42.8594C50.9766 43 51.7188 43.125 52.4766 43.2344C52.9922 43.3203 53.5078 43.3906 54.0391 43.4531Z" fill="#1D1D1B"/>
<path d="M34.8125 7.04688C34.2422 7.49219 33.6797 7.98437 33.1328 8.50781C33.0781 8.5625 33.0234 8.60937 32.9766 8.66406L33.1875 7.04688H34.8125Z" fill="#1D1D1B"/>
<path d="M61.4141 8.60938C61.2734 8.64844 61.1328 8.6875 61 8.73437C59.1719 9.26562 57.4766 10.1484 55.9141 11.3984C54.2266 12.7344 53.0859 14.3516 52.4766 16.25V41.6562C51.8203 41.5547 51.1719 41.4453 50.5469 41.3281C47.3984 40.7344 44.5781 39.9063 42.125 38.8594V16.25C41.6016 14.3516 40.4844 12.7344 38.7578 11.3984C37.4922 10.4219 36.1641 9.66406 34.7656 9.125C34.25 8.92187 33.7266 8.75 33.1875 8.60938H61.4141Z" fill="#1D1D1B"/>
<path d="M61.4297 7.16406C61.3594 7.125 61.2891 7.08594 61.2188 7.04688H61.4141L61.4297 7.16406Z" fill="#1D1D1B"/>
<path d="M47.9609 90.9844C45.9219 90.9844 43.9766 90.7969 42.125 90.4297V43.7031C44.7422 44.6875 47.5313 45.3906 50.4688 45.7969C51.1172 45.8828 51.7812 45.9688 52.4766 46.0469V90.6641C51.0547 90.875 49.5469 90.9844 47.9609 90.9844Z" fill="#1D1D1B"/>
<path d="M40.9609 93.3594C40.3594 93.2969 39.7578 93.2266 39.1719 93.1484C39.5859 92.6641 39.9219 92.1484 40.1797 91.5938C40.6875 91.7266 41.1953 91.8438 41.7188 91.9453C43.6953 92.3516 45.7734 92.5469 47.9609 92.5469C49.5469 92.5469 51.0547 92.4531 52.4766 92.25C53.0078 92.1797 53.5312 92.0938 54.0391 91.9844V93.2109C53.5312 93.2969 53.0078 93.375 52.4766 93.4297C50.9766 93.6172 49.3828 93.7031 47.7031 93.7031C45.3672 93.7031 43.1172 93.5859 40.9609 93.3594Z" fill="#1D1D1B"/>
<path d="M96.6328 80.6016L93.6562 98.6016H33.1875C35.1719 97.9922 37.0234 97.0234 38.7578 95.6875C39.125 95.4063 39.4609 95.1094 39.7734 94.7891C42.3047 95.1094 44.9453 95.2656 47.7031 95.2656C49.375 95.2656 50.9687 95.1797 52.4766 94.9922V97.3047H63.6172C68.9531 97.3047 74.6172 95.6328 80.6016 92.2813C80.8125 92.1641 81.0156 92.0469 81.2266 91.9297C81.6953 91.6563 82.1562 91.3906 82.6094 91.1172C82.7578 91.0312 82.9062 90.9375 83.0547 90.8516C83.5859 90.5313 84.1016 90.2109 84.6172 89.8906C89.3281 86.9219 93.3438 83.8281 96.6328 80.6016Z" fill="#1D1D1B"/>
<path d="M50.4688 45.7969C47.5312 45.3906 44.7422 44.6875 42.125 43.7031V90.4297C43.9766 90.7969 45.9219 90.9844 47.9609 90.9844C49.5469 90.9844 51.0547 90.875 52.4766 90.6641V46.0469C51.7812 45.9688 51.1172 45.8828 50.4688 45.7969ZM84.6172 89.8906C84.1016 90.2109 83.5859 90.5312 83.0547 90.8516C82.9062 90.9375 82.7578 91.0312 82.6094 91.1172C82.1562 91.3906 81.6953 91.6562 81.2266 91.9297C81.0156 92.0469 80.8125 92.1641 80.6016 92.2813C74.6172 95.6328 68.9531 97.3047 63.6172 97.3047H52.4766V94.9922C50.9687 95.1797 49.375 95.2656 47.7031 95.2656C44.9453 95.2656 42.3047 95.1094 39.7734 94.7891C39.4609 95.1094 39.125 95.4063 38.7578 95.6875C37.0234 97.0234 35.1719 97.9922 33.1875 98.6016H93.6562L96.6328 80.6016C93.3438 83.8281 89.3281 86.9219 84.6172 89.8906ZM52.4766 93.4297V92.25C51.0547 92.4531 49.5469 92.5469 47.9609 92.5469C45.7734 92.5469 43.6953 92.3516 41.7188 91.9453C41.5234 92.4375 41.2656 92.9141 40.9609 93.3594C43.1172 93.5859 45.3672 93.7031 47.7031 93.7031C49.3828 93.7031 50.9766 93.6172 52.4766 93.4297ZM50.25 42.8594C47.2422 42.2891 44.5312 41.5234 42.125 40.5547V42.0312C44.7891 43.0859 47.6406 43.8203 50.6797 44.2422C51.2578 44.3203 51.8594 44.3984 52.4766 44.4688V43.2344C51.7187 43.125 50.9766 43 50.25 42.8594ZM33.1875 8.60938C33.7266 8.75 34.25 8.92187 34.7656 9.125C36.1641 9.66406 37.4922 10.4219 38.7578 11.3984C40.4844 12.7344 41.6016 14.3516 42.125 16.25V38.8594C44.5781 39.9063 47.3984 40.7344 50.5469 41.3281C51.1719 41.4453 51.8203 41.5547 52.4766 41.6562V16.25C53.0859 14.3516 54.2266 12.7344 55.9141 11.3984C57.4766 10.1484 59.1719 9.26562 61 8.73437C61.1328 8.6875 61.2734 8.64844 61.4141 8.60938H33.1875Z" fill="white"/>
<path d="M60.7891 8.60938C60.8594 8.64063 60.9297 8.6875 61 8.73438C61.1328 8.6875 61.2734 8.64844 61.4141 8.60938H60.7891ZM65.4375 44.1172C61.2969 44.1172 57.4922 43.8984 54.0391 43.4531C53.5078 43.3906 52.9922 43.3203 52.4766 43.2344C51.7187 43.125 50.9766 43 50.25 42.8594C47.2422 42.2891 44.5312 41.5234 42.125 40.5547C41.5859 40.3438 41.0703 40.1172 40.5625 39.875C40.3359 39.7812 40.1094 39.6719 39.8906 39.5625C38.8203 39.0312 37.8203 38.4609 36.8906 37.8359C30.6328 33.6484 27.5078 28.1484 27.5078 21.3281C27.5078 16.4766 29.3281 12.2578 32.9766 8.66406C33.0234 8.60938 33.0781 8.5625 33.1328 8.50781C33.6797 7.98438 34.2422 7.49219 34.8125 7.04688C38.1797 4.39063 42 3.07031 46.2812 3.07031C50.9375 3.07031 55.2109 4.02344 59.1016 5.92188C59.8203 6.27344 60.5234 6.64844 61.2188 7.04688C61.2891 7.08594 61.3594 7.125 61.4297 7.16406C64.3906 8.89844 67.1094 11.0469 69.5859 13.625C72.6875 16.8594 75.5 20.4219 78 24.3047V6.3125C68.5938 2.9375 58.8828 1.25781 48.8672 1.25781C35.1406 1.34375 24.2266 5.59375 16.1094 14.0078C7.99219 22.4297 3.9375 33.5859 3.9375 47.4844C3.9375 62.3281 7.78125 73.7422 15.4609 81.7266C21.4844 87.9922 29.3906 91.7891 39.1719 93.1484C39.7578 93.2266 40.3594 93.2969 40.9609 93.3594C43.1172 93.5859 45.3672 93.7031 47.7031 93.7031C49.3828 93.7031 50.9766 93.6172 52.4766 93.4297C53.0078 93.375 53.5312 93.2969 54.0391 93.2109C58.5859 92.4375 62.2344 90.7734 64.9844 88.2031C68.9141 84.5391 71.5312 79.8125 72.8203 74.0234L81.2344 90.1172C81.8516 89.7578 82.4609 89.3906 83.0625 89.0234L83.1797 51.8828C84.2109 48.2578 87.1953 45.6719 92.1172 44.1172H65.4375ZM72.8203 62.2422C72.8203 67.7656 72.0234 72.8203 70.4219 77.3906C68.8281 81.9688 66.1719 85.6406 62.4609 88.3984C60.1094 90.1484 57.2969 91.3516 54.0391 91.9844C53.5312 92.0938 53.0078 92.1797 52.4766 92.25C51.0547 92.4531 49.5469 92.5469 47.9609 92.5469C45.7734 92.5469 43.6953 92.3516 41.7188 91.9453C41.1953 91.8438 40.6875 91.7266 40.1797 91.5938C36.2266 90.5625 32.7109 88.7031 29.6406 86C24.6797 81.6484 20.9453 75.625 18.4375 67.9375C15.9375 60.2578 14.6875 51.4531 14.6875 41.5234C14.6875 31.5938 16.6094 23.7656 20.4453 17.5078C24.2891 11.25 29.4453 7 35.9219 4.75C29.4453 8.89844 26.2109 14.4219 26.2109 21.3281C26.2109 28.2344 29.3984 34.1016 35.7891 38.6797C37.3047 39.7109 38.8906 40.6016 40.5625 41.3594C41.0703 41.6016 41.5937 41.8203 42.125 42.0312C44.7891 43.0859 47.6406 43.8203 50.6797 44.2422C51.2578 44.3203 51.8594 44.3984 52.4766 44.4688C52.9844 44.5312 53.5078 44.5859 54.0391 44.6406C59.1328 45.1562 65.3984 45.4141 72.8203 45.4141V62.2422ZM83.0547 90.8516C82.9062 90.9375 82.7578 91.0312 82.6094 91.1172C82.1562 91.3906 81.6953 91.6562 81.2266 91.9297C81.0156 92.0469 80.8125 92.1641 80.6016 92.2812L80.8125 92.6797H84.6094V89.8906C84.1016 90.2109 83.5859 90.5312 83.0547 90.8516ZM33.1875 8.60938C33.7266 8.75 34.25 8.92188 34.7656 9.125C34.9609 8.94531 35.1641 8.77344 35.3594 8.60938H33.1875Z" fill="white"/>
<path d="M65.4375 44.1172C61.2969 44.1172 57.4922 43.8984 54.0391 43.4531C53.5078 43.3906 52.9922 43.3203 52.4766 43.2344C51.7187 43.125 50.9766 43 50.25 42.8594C47.2422 42.2891 44.5312 41.5234 42.125 40.5547C41.5859 40.3438 41.0703 40.1172 40.5625 39.875C40.3359 39.7812 40.1094 39.6719 39.8906 39.5625C38.8203 39.0312 37.8203 38.4609 36.8906 37.8359C30.6328 33.6484 27.5078 28.1484 27.5078 21.3281C27.5078 16.4766 29.3281 12.2578 32.9766 8.66406C33.0234 8.60938 33.0781 8.5625 33.1328 8.50781C33.6797 7.98438 34.2422 7.49219 34.8125 7.04688C38.1797 4.39063 42 3.07031 46.2812 3.07031C50.9375 3.07031 55.2109 4.02344 59.1016 5.92188C59.8203 6.27344 60.5234 6.64844 61.2188 7.04688C61.2891 7.08594 61.3594 7.125 61.4297 7.16406C64.3906 8.89844 67.1094 11.0469 69.5859 13.625C72.6875 16.8594 75.5 20.4219 78 24.3047V6.3125C68.5938 2.9375 58.8828 1.25781 48.8672 1.25781C35.1406 1.34375 24.2266 5.59375 16.1094 14.0078C7.99219 22.4297 3.9375 33.5859 3.9375 47.4844C3.9375 62.3281 7.78125 73.7422 15.4609 81.7266C21.4844 87.9922 29.3906 91.7891 39.1719 93.1484C39.7578 93.2266 40.3594 93.2969 40.9609 93.3594C43.1172 93.5859 45.3672 93.7031 47.7031 93.7031C49.3828 93.7031 50.9766 93.6172 52.4766 93.4297C53.0078 93.375 53.5312 93.2969 54.0391 93.2109C58.5859 92.4375 62.2344 90.7734 64.9844 88.2031C68.9141 84.5391 71.5312 79.8125 72.8203 74.0234L81.2344 90.1172C81.8516 89.7578 82.4609 89.3906 83.0625 89.0234L83.1797 51.8828C84.2109 48.2578 87.1953 45.6719 92.1172 44.1172H65.4375ZM72.8203 62.2422C72.8203 67.7656 72.0234 72.8203 70.4219 77.3906C68.8281 81.9688 66.1719 85.6406 62.4609 88.3984C60.1094 90.1484 57.2969 91.3516 54.0391 91.9844C53.5312 92.0938 53.0078 92.1797 52.4766 92.25C51.0547 92.4531 49.5469 92.5469 47.9609 92.5469C45.7734 92.5469 43.6953 92.3516 41.7188 91.9453C41.1953 91.8438 40.6875 91.7266 40.1797 91.5938C36.2266 90.5625 32.7109 88.7031 29.6406 86C24.6797 81.6484 20.9453 75.625 18.4375 67.9375C15.9375 60.2578 14.6875 51.4531 14.6875 41.5234C14.6875 31.5938 16.6094 23.7656 20.4453 17.5078C24.2891 11.25 29.4453 7 35.9219 4.75C29.4453 8.89844 26.2109 14.4219 26.2109 21.3281C26.2109 28.2344 29.3984 34.1016 35.7891 38.6797C37.3047 39.7109 38.8906 40.6016 40.5625 41.3594C41.0703 41.6016 41.5937 41.8203 42.125 42.0312C44.7891 43.0859 47.6406 43.8203 50.6797 44.2422C51.2578 44.3203 51.8594 44.3984 52.4766 44.4688C52.9844 44.5312 53.5078 44.5859 54.0391 44.6406C59.1328 45.1562 65.3984 45.4141 72.8203 45.4141V62.2422Z" fill="white"/>
</g>
<defs>
<clipPath id="clip0_258_158">
<rect width="100" height="100" fill="white"/>
</clipPath>
</defs>
</svg>
