<svg width="80" height="80" viewBox="0 0 80 80" fill="none" xmlns="http://www.w3.org/2000/svg">
<g clip-path="url(#clip0_485_319)">
<rect width="80" height="80" rx="40" fill="#FF9B00"/>
<path d="M32.4676 27.37H32.349C31.7468 29.7931 31.1446 32.8706 30.476 35.2273L28.0576 43.8622H37.0577L34.5208 35.2273C33.8 32.8089 33.0745 29.7931 32.4676 27.37Z" fill="#010102"/>
<path d="M75.0969 0H4.89835C2.19074 0 0 2.19074 0 4.89835V75.1017C0 77.8045 2.19074 80 4.89835 80H75.1017C77.8045 80 80 77.8045 80 75.1017V4.89835C80 2.19548 77.8045 0 75.0969 0ZM41.5293 61.1938L38.3854 50.7474H26.7346L23.8326 61.1938H14.292L26.7346 20.4943H38.8074L51.435 61.1938H41.5293ZM65.4045 61.1938H56.2196V31.6662H65.4045V61.1938ZM60.7575 28.0434C57.8602 28.0434 55.9256 25.9854 55.9825 23.4485C55.9256 20.7883 57.8602 18.8062 60.8239 18.8062C63.7781 18.8062 65.6511 20.7931 65.708 23.4485C65.708 25.9854 63.7781 28.0434 60.7575 28.0434Z" fill="#010102"/>
</g>
<defs>
<clipPath id="clip0_485_319">
<rect width="80" height="80" fill="white"/>
</clipPath>
</defs>
</svg>
