<svg width="80" height="80" viewBox="0 0 80 80" fill="none" xmlns="http://www.w3.org/2000/svg">
<path d="M35.9521 53.0553C36.6461 53.0553 37.3399 52.5927 38.0339 52.13C40.8098 50.5108 43.1229 48.1977 45.2048 45.8845C54.9201 36.1692 63.4788 25.2973 71.5749 14.1942C71.8063 13.7315 72.2689 13.0375 72.5003 12.575C72.5003 12.3437 72.5003 11.6497 72.2689 11.4183C72.0376 11.187 71.5749 11.187 71.1123 11.187C70.8809 11.187 70.4183 11.6497 69.9556 11.881C66.7171 14.1942 63.2474 16.5073 60.0089 18.8205C51.6816 24.8347 43.3541 31.0803 35.9519 38.2512C33.8701 40.333 32.0196 42.6462 30.1689 44.728C29.4749 45.422 29.2436 46.3472 29.9376 47.2725C31.0943 49.123 32.7134 50.9735 34.5639 52.3615C35.0266 52.8242 35.2583 52.824 35.9521 53.0553Z" stroke="url(#paint0_linear_485_348)" stroke-width="6" stroke-linecap="round" stroke-linejoin="round"/>
<path d="M29.4752 46.5785C28.7812 46.3472 26.9307 46.3472 26.2367 46.5785C23.6922 47.0412 21.6103 48.6604 19.7598 50.5109C18.372 52.13 17.4467 53.9807 16.5213 56.0625C15.596 58.8384 14.2082 61.1515 11.6637 62.7707C10.0445 63.4647 8.88783 64.3899 7.5 65.3152C8.194 65.7779 8.88783 66.2405 9.58183 66.703C13.9768 68.7849 18.8345 69.4789 23.4608 68.0909C29.7063 66.4717 34.3327 59.3009 35.7207 52.824" stroke="url(#paint1_linear_485_348)" stroke-width="6" stroke-linecap="round" stroke-linejoin="round"/>
<defs>
<linearGradient id="paint0_linear_485_348" x1="72.0569" y1="11.187" x2="29.9619" y2="53.0555" gradientUnits="userSpaceOnUse">
<stop stop-color="#DA3659"/>
<stop offset="0.44" stop-color="#F7446C"/>
<stop offset="1" stop-color="#F74E51"/>
</linearGradient>
<linearGradient id="paint1_linear_485_348" x1="7.5" y1="68.5404" x2="35.7207" y2="46.6776" gradientUnits="userSpaceOnUse">
<stop stop-color="#DA3659"/>
<stop offset="0.435" stop-color="#F7446C"/>
<stop offset="1" stop-color="#F74E51"/>
</linearGradient>
</defs>
</svg>
